<mxfile host="65bd71144e">
    <diagram id="jkpnOeByUOLPQfgmL3F_" name="Page-1">
        <mxGraphModel dx="1047" dy="938" grid="1" gridSize="10" guides="1" tooltips="1" connect="1" arrows="1" fold="1" page="1" pageScale="1" pageWidth="850" pageHeight="1100" background="none" math="0" shadow="1">
            <root>
                <mxCell id="0"/>
                <mxCell id="1" parent="0"/>
                <mxCell id="2" value="Dashboard.jsx (Panou de comanda)" style="rounded=1;whiteSpace=wrap;html=1;" vertex="1" parent="1">
                    <mxGeometry x="610" y="11" width="120" height="60" as="geometry"/>
                </mxCell>
                <mxCell id="3" value="Settings.jsx&lt;div&gt;Praguri si alerte&lt;/div&gt;&lt;div&gt;&lt;br&gt;&lt;/div&gt;" style="rounded=1;whiteSpace=wrap;html=1;" vertex="1" parent="1">
                    <mxGeometry x="610" y="350" width="120" height="60" as="geometry"/>
                </mxCell>
                <mxCell id="4" value="Monitoring.jsx&lt;div&gt;Grafice&lt;/div&gt;" style="rounded=1;whiteSpace=wrap;html=1;" vertex="1" parent="1">
                    <mxGeometry x="620" y="130" width="120" height="60" as="geometry"/>
                </mxCell>
                <mxCell id="5" value="MixMacronutrinti.jsx" style="rounded=1;whiteSpace=wrap;html=1;" vertex="1" parent="1">
                    <mxGeometry x="620" y="240" width="120" height="60" as="geometry"/>
                </mxCell>
                <mxCell id="7" value="React&amp;nbsp;" style="label;whiteSpace=wrap;html=1;align=center;verticalAlign=bottom;spacingLeft=0;spacingBottom=4;imageAlign=center;imageVerticalAlign=top;image=img/clipart/Gear_128x128.png" vertex="1" parent="1">
                    <mxGeometry x="300" y="20" width="120" height="80" as="geometry"/>
                </mxCell>
                <mxCell id="8" value="Pages&lt;div&gt;&lt;br&gt;&lt;/div&gt;" style="html=1;whiteSpace=wrap;container=1;recursiveResize=0;collapsible=0;" vertex="1" parent="1">
                    <mxGeometry x="270" y="190" width="180" height="90" as="geometry"/>
                </mxCell>
                <mxCell id="9" value="" style="triangle;html=1;whiteSpace=wrap;" vertex="1" parent="8">
                    <mxGeometry x="20" y="20" width="20" height="30" as="geometry"/>
                </mxCell>
                <mxCell id="20" value="" style="shape=singleArrow;whiteSpace=wrap;html=1;rotation=-48;" vertex="1" parent="1">
                    <mxGeometry x="440" y="100" width="158.95" height="42.62" as="geometry"/>
                </mxCell>
                <mxCell id="23" value="" style="shape=singleArrow;whiteSpace=wrap;html=1;rotation=-30;arrowWidth=0.31514323890393325;arrowSize=0.18064682334883808;" vertex="1" parent="1">
                    <mxGeometry x="467.94999999999993" y="170" width="152.05" height="35.05" as="geometry"/>
                </mxCell>
                <mxCell id="24" value="" style="shape=singleArrow;whiteSpace=wrap;html=1;arrowWidth=0.2;arrowSize=0.23199951171875;" vertex="1" parent="1">
                    <mxGeometry x="473.97" y="230" width="140" height="60" as="geometry"/>
                </mxCell>
                <mxCell id="26" value="" style="shape=singleArrow;whiteSpace=wrap;html=1;rotation=35;" vertex="1" parent="1">
                    <mxGeometry x="440" y="310" width="159.33" height="60" as="geometry"/>
                </mxCell>
                <mxCell id="27" value="" style="shape=singleArrow;direction=west;whiteSpace=wrap;html=1;rotation=40;" vertex="1" parent="1">
                    <mxGeometry x="180.6" y="141.8" width="85.11" height="32.5" as="geometry"/>
                </mxCell>
                <mxCell id="30" value="" style="shape=singleArrow;direction=west;whiteSpace=wrap;html=1;" vertex="1" parent="1">
                    <mxGeometry x="170" y="220" width="80" height="30" as="geometry"/>
                </mxCell>
                <mxCell id="31" value="Charts.jsx&lt;div&gt;&lt;br&gt;&lt;/div&gt;" style="shape=ext;double=1;rounded=1;whiteSpace=wrap;html=1;" vertex="1" parent="1">
                    <mxGeometry x="50" y="60" width="120" height="80" as="geometry"/>
                </mxCell>
                <mxCell id="32" value="Setting.jsx&lt;div&gt;&lt;br&gt;&lt;/div&gt;" style="shape=ext;double=1;rounded=1;whiteSpace=wrap;html=1;" vertex="1" parent="1">
                    <mxGeometry x="10" y="195" width="120" height="80" as="geometry"/>
                </mxCell>
                <mxCell id="33" value="AlertSetting.jsx" style="shape=ext;double=1;rounded=1;whiteSpace=wrap;html=1;" vertex="1" parent="1">
                    <mxGeometry x="90" y="340" width="120" height="80" as="geometry"/>
                </mxCell>
                <mxCell id="34" value="" style="shape=singleArrow;direction=west;whiteSpace=wrap;html=1;rotation=-40;" vertex="1" parent="1">
                    <mxGeometry x="195.54" y="300.04" width="76.81" height="28.02" as="geometry"/>
                </mxCell>
            </root>
        </mxGraphModel>
    </diagram>
</mxfile>